# BLENDER GURU TAUGHT ME THIS.

o Torus
v 1.610000 0.000000 0.000000
v 0.414709 0.171857 0.000000
v 0.414709 -0.171857 0.000000
v 0.600535 -0.461007 0.000000
v 0.913188 -0.603791 0.000000
v 1.253403 -0.554876 0.000000
v 1.513165 -0.329791 0.000000
v 1.450560 0.000000 -0.698553
v 0.373640 0.171857 -0.179936
v 0.373640 -0.171857 -0.179936
v 0.541063 -0.461007 -0.260562
v 0.822754 -0.603791 -0.396217
v 1.129277 -0.554876 -0.543831
v 1.363314 -0.329791 -0.656537
v 1.003818 0.000000 -1.258749
v 0.258567 0.171857 -0.324233
v 0.258567 -0.171857 -0.324233
v 0.374427 -0.461007 -0.469517
v 0.569363 -0.603791 -0.713959
v 0.781484 -0.554876 -0.979950
v 0.943443 -0.329791 -1.183040
v 0.358259 0.000000 -1.569634
v 0.092282 0.171857 -0.404312
v 0.092282 -0.171857 -0.404312
v 0.133632 -0.461007 -0.585478
v 0.203204 -0.603791 -0.890292
v 0.278909 -0.554876 -1.221978
v 0.336711 -0.329791 -1.475226
v -0.358259 0.000000 -1.569634
v -0.092281 0.171857 -0.404312
v -0.092281 -0.171857 -0.404312
v -0.133632 -0.461007 -0.585478
v -0.203203 -0.603791 -0.890292
v -0.278908 -0.554876 -1.221978
v -0.336711 -0.329791 -1.475226
v -1.003819 0.000000 -1.258749
v -0.258567 0.171857 -0.324233
v -0.258567 -0.171857 -0.324233
v -0.374427 -0.461007 -0.469517
v -0.569364 -0.603791 -0.713959
v -0.781484 -0.554876 -0.979950
v -0.943443 -0.329791 -1.183040
v -1.450560 0.000000 -0.698553
v -0.373640 0.171857 -0.179936
v -0.373640 -0.171857 -0.179936
v -0.541063 -0.461007 -0.260562
v -0.822754 -0.603791 -0.396217
v -1.129277 -0.554876 -0.543831
v -1.363314 -0.329791 -0.656538
v -1.610000 0.000000 -0.000000
v -0.414709 0.171857 -0.000000
v -0.414709 -0.171857 -0.000000
v -0.600535 -0.461007 -0.000000
v -0.913188 -0.603791 -0.000000
v -1.253403 -0.554876 -0.000000
v -1.513165 -0.329791 -0.000000
v -1.450560 0.000000 0.698552
v -0.373640 0.171857 0.179935
v -0.373640 -0.171857 0.179935
v -0.541063 -0.461007 0.260562
v -0.822754 -0.603791 0.396217
v -1.129277 -0.554876 0.543831
v -1.363315 -0.329791 0.656537
v -1.003819 0.000000 1.258749
v -0.258567 0.171857 0.324233
v -0.258567 -0.171857 0.324233
v -0.374427 -0.461007 0.469517
v -0.569364 -0.603791 0.713959
v -0.781484 -0.554876 0.979950
v -0.943443 -0.329791 1.183040
v -0.358259 0.000000 1.569634
v -0.092281 0.171857 0.404312
v -0.092281 -0.171857 0.404312
v -0.133632 -0.461007 0.585478
v -0.203203 -0.603791 0.890292
v -0.278908 -0.554876 1.221978
v -0.336711 -0.329791 1.475226
v 0.358259 0.000000 1.569634
v 0.092282 0.171857 0.404312
v 0.092282 -0.171857 0.404312
v 0.133632 -0.461007 0.585478
v 0.203204 -0.603791 0.890292
v 0.278909 -0.554876 1.221978
v 0.336711 -0.329791 1.475226
v 1.003818 0.000000 1.258749
v 0.258567 0.171857 0.324233
v 0.258567 -0.171857 0.324233
v 0.374427 -0.461007 0.469517
v 0.569363 -0.603791 0.713959
v 0.781483 -0.554876 0.979951
v 0.943442 -0.329791 1.183040
v 1.450560 0.000000 0.698553
v 0.373640 0.171857 0.179936
v 0.373640 -0.171857 0.179936
v 0.541063 -0.461007 0.260563
v 0.822754 -0.603791 0.396218
v 1.129277 -0.554876 0.543832
v 1.363314 -0.329791 0.656538
v 1.663533 -0.011756 -0.000000
v 1.563478 0.329001 -0.000000
v 1.498791 -0.011756 -0.721780
v 1.408645 0.329001 -0.678367
v 1.295079 0.561570 -0.000000
v 1.166826 0.561570 -0.561914
v 0.943552 0.612112 -0.000000
v 0.850111 0.612112 -0.409392
v 0.504748 0.436713 0.000000
v 0.454762 0.436713 -0.219002
v 0.348562 0.193683 0.000000
v 0.314044 0.193683 -0.151235
v 1.037196 -0.011756 -1.300602
v 0.974812 0.329001 -1.222376
v 0.807468 0.561570 -1.012534
v 0.588295 0.612112 -0.737698
v 0.314705 0.436713 -0.394628
v 0.217325 0.193683 -0.272517
v 0.370171 -0.011756 -1.621825
v 0.347907 0.329001 -1.524278
v 0.288182 0.561570 -1.262609
v 0.209960 0.612112 -0.919895
v 0.112317 0.436713 -0.492093
v 0.077562 0.193683 -0.339823
v -0.370171 -0.011756 -1.621825
v -0.347907 0.329001 -1.524278
v -0.288182 0.561570 -1.262609
v -0.209960 0.612112 -0.919895
v -0.112317 0.436713 -0.492093
v -0.077562 0.193683 -0.339823
v -1.037196 -0.011756 -1.300602
v -0.974813 0.329001 -1.222376
v -0.807469 0.561570 -1.012534
v -0.588295 0.612112 -0.737698
v -0.314705 0.436713 -0.394628
v -0.217325 0.193683 -0.272517
v -1.498791 -0.011756 -0.721780
v -1.408645 0.329001 -0.678368
v -1.166826 0.561570 -0.561914
v -0.850111 0.612112 -0.409392
v -0.454762 0.436713 -0.219002
v -0.314044 0.193683 -0.151235
v -1.663533 -0.011756 -0.000000
v -1.563478 0.329001 -0.000000
v -1.295079 0.561570 -0.000000
v -0.943552 0.612112 -0.000000
v -0.504748 0.436713 -0.000000
v -0.348562 0.193683 -0.000000
v -1.498791 -0.011756 0.721779
v -1.408645 0.329001 0.678367
v -1.166826 0.561570 0.561913
v -0.850111 0.612112 0.409391
v -0.454762 0.436713 0.219002
v -0.314044 0.193683 0.151235
v -1.037196 -0.011756 1.300602
v -0.974813 0.329001 1.222376
v -0.807469 0.561570 1.012534
v -0.588295 0.612112 0.737698
v -0.314705 0.436713 0.394628
v -0.217325 0.193683 0.272517
v -0.370171 -0.011756 1.621825
v -0.347907 0.329001 1.524278
v -0.288182 0.561570 1.262609
v -0.209960 0.612112 0.919895
v -0.112317 0.436713 0.492093
v -0.077562 0.193683 0.339823
v 0.370171 -0.011756 1.621825
v 0.347907 0.329001 1.524278
v 0.288182 0.561570 1.262609
v 0.209960 0.612112 0.919895
v 0.112317 0.436713 0.492093
v 0.077562 0.193683 0.339823
v 1.037195 -0.011756 1.300603
v 0.974812 0.329001 1.222377
v 0.807468 0.561570 1.012534
v 0.588294 0.612112 0.737699
v 0.314705 0.436713 0.394628
v 0.217325 0.193683 0.272517
v 1.498791 -0.011756 0.721780
v 1.408644 0.329001 0.678368
v 1.166826 0.561570 0.561914
v 0.850110 0.612112 0.409392
v 0.454762 0.436713 0.219002
v 0.314043 0.193683 0.151236
v 0.359104 0.177180 -0.172936
v -0.398576 0.177180 -0.000000
v -0.088691 0.177180 0.388583
v 0.248508 0.177180 -0.311619
v -0.359104 0.177180 -0.172936
v -0.248508 0.177180 -0.311619
v -0.248508 0.177180 0.311619
v -0.359104 0.177180 0.172935
v 0.248508 0.177180 0.311619
v 0.088692 0.177180 0.388583
v 0.398576 0.177180 0.000000
v 0.359104 0.177180 0.172936
v -0.088691 0.177180 -0.388583
v 0.088692 0.177180 -0.388583
v -0.359279 0.190146 -0.000000
v -0.079947 0.190146 0.350271
v 0.224007 0.190146 -0.280896
v -0.224007 0.190146 -0.280896
v -0.323700 0.190146 0.155885
v 0.079947 0.190146 0.350271
v 0.323699 0.190146 0.155886
v 0.079947 0.190146 -0.350271
v 0.323699 0.190146 -0.155885
v -0.323699 0.190146 -0.155885
v -0.224007 0.190146 0.280896
v 0.224007 0.190146 0.280896
v 0.359279 0.190146 0.000000
v -0.079947 0.190146 -0.350271
v 1.606401 -0.012256 0.000000
v 1.447318 -0.012256 -0.696991
v 1.001575 -0.012256 -1.255935
v 0.357458 -0.012256 -1.566126
v -0.357458 -0.012256 -1.566126
v -1.001575 -0.012256 -1.255935
v -1.447318 -0.012256 -0.696992
v -1.606401 -0.012256 -0.000000
v -1.447318 -0.012256 0.696991
v -1.001575 -0.012256 1.255935
v -0.357458 -0.012256 1.566126
v 0.357458 -0.012256 1.566126
v 1.001574 -0.012256 1.255936
v 1.447317 -0.012256 0.696992
v 1.027133 -0.008212 -1.287985
v 1.647394 -0.008212 -0.000000
v 1.484251 -0.008212 -0.714778
v -1.027134 -0.008212 -1.287984
v -1.484251 -0.008212 0.714777
v 0.366580 -0.008212 1.606091
v 0.366580 -0.008212 -1.606091
v -0.366580 -0.008212 -1.606091
v -1.484251 -0.008212 -0.714778
v -1.647394 -0.008212 -0.000000
v -1.027134 -0.008212 1.287984
v -0.366580 -0.008212 1.606091
v 1.027133 -0.008212 1.287985
v 1.484251 -0.008212 0.714778
v 1.656552 0.012018 -0.000000
v 1.492502 0.012018 -0.718751
v 1.032843 0.012018 -1.295145
v 0.368618 0.012018 -1.615019
v -0.368618 0.012018 -1.615019
v -1.032844 0.012018 -1.295145
v -1.492502 0.012018 -0.718751
v -1.656552 0.012018 -0.000000
v -1.492502 0.012018 0.718750
v -1.032844 0.012018 1.295145
v -0.368618 0.012018 1.615019
v 0.368618 0.012018 1.615019
v 1.032843 0.012018 1.295146
v 1.492502 0.012018 0.718752
v 0.357968 0.208319 0.000000
v 0.322518 0.208319 -0.155317
v 0.223189 0.208319 -0.279871
v 0.079655 0.208319 -0.348993
v -0.079655 0.208319 -0.348993
v -0.223189 0.208319 -0.279871
v -0.322518 0.208319 -0.155317
v -0.357968 0.208319 -0.000000
v -0.322518 0.208319 0.155316
v -0.223189 0.208319 0.279871
v -0.079655 0.208319 0.348993
v 0.079655 0.208319 0.348993
v 0.223189 0.208319 0.279871
v 0.322518 0.208319 0.155317
vn 0.4302 -0.9027 -0.0000
vn -0.8355 -0.5495 -0.0000
vn -0.9561 -0.2931 -0.0000
vn -0.6307 -0.7760 -0.0000
vn -0.1025 -0.9947 -0.0000
vn 0.4476 -0.8943 -0.0000
vn 0.8522 -0.5232 -0.0000
vn 0.3876 -0.9027 -0.1867
vn -0.7528 -0.5495 0.3625
vn -0.8614 -0.2931 0.4148
vn -0.5683 -0.7760 0.2737
vn -0.0923 -0.9947 0.0445
vn 0.4032 -0.8943 -0.1942
vn 0.7678 -0.5232 -0.3698
vn 0.2683 -0.9027 -0.3364
vn -0.5209 -0.5495 0.6532
vn -0.5961 -0.2931 0.7475
vn -0.3933 -0.7760 0.4931
vn -0.0639 -0.9947 0.0801
vn 0.2791 -0.8943 -0.3499
vn 0.5313 -0.5232 -0.6663
vn 0.0957 -0.9027 -0.4195
vn -0.1859 -0.5495 0.8146
vn -0.2127 -0.2931 0.9321
vn -0.1404 -0.7760 0.6149
vn -0.0228 -0.9947 0.0999
vn 0.0996 -0.8943 -0.4363
vn 0.1896 -0.5232 -0.8308
vn -0.0957 -0.9027 -0.4195
vn 0.1859 -0.5495 0.8146
vn 0.2127 -0.2931 0.9321
vn 0.1404 -0.7760 0.6149
vn 0.0228 -0.9947 0.0999
vn -0.0996 -0.8943 -0.4363
vn -0.1896 -0.5232 -0.8308
vn -0.2683 -0.9027 -0.3364
vn 0.5209 -0.5495 0.6532
vn 0.5961 -0.2931 0.7475
vn 0.3933 -0.7760 0.4931
vn 0.0639 -0.9947 0.0801
vn -0.2791 -0.8943 -0.3499
vn -0.5313 -0.5232 -0.6663
vn -0.3876 -0.9027 -0.1867
vn 0.7528 -0.5495 0.3625
vn 0.8614 -0.2931 0.4148
vn 0.5683 -0.7760 0.2737
vn 0.0923 -0.9947 0.0445
vn -0.4032 -0.8943 -0.1942
vn -0.7678 -0.5232 -0.3698
vn -0.4302 -0.9027 -0.0000
vn 0.8355 -0.5495 -0.0000
vn 0.9561 -0.2931 -0.0000
vn 0.6307 -0.7760 -0.0000
vn 0.1025 -0.9947 -0.0000
vn -0.4476 -0.8943 -0.0000
vn -0.8522 -0.5232 -0.0000
vn -0.3876 -0.9027 0.1867
vn 0.7528 -0.5495 -0.3625
vn 0.8614 -0.2931 -0.4148
vn 0.5683 -0.7760 -0.2737
vn 0.0923 -0.9947 -0.0445
vn -0.4032 -0.8943 0.1942
vn -0.7678 -0.5232 0.3698
vn -0.2683 -0.9027 0.3364
vn 0.5209 -0.5495 -0.6532
vn 0.5961 -0.2931 -0.7475
vn 0.3933 -0.7760 -0.4931
vn 0.0639 -0.9947 -0.0801
vn -0.2791 -0.8943 0.3499
vn -0.5313 -0.5232 0.6663
vn -0.0957 -0.9027 0.4195
vn 0.1859 -0.5495 -0.8146
vn 0.2127 -0.2931 -0.9321
vn 0.1404 -0.7760 -0.6149
vn 0.0228 -0.9947 -0.0999
vn -0.0996 -0.8943 0.4363
vn -0.1896 -0.5232 0.8308
vn 0.0957 -0.9027 0.4195
vn -0.1859 -0.5495 -0.8146
vn -0.2127 -0.2931 -0.9321
vn -0.1404 -0.7760 -0.6149
vn -0.0228 -0.9947 -0.0999
vn 0.0996 -0.8943 0.4363
vn 0.1896 -0.5232 0.8308
vn 0.2683 -0.9027 0.3364
vn -0.5209 -0.5495 -0.6532
vn -0.5961 -0.2931 -0.7475
vn -0.3933 -0.7760 -0.4931
vn -0.0639 -0.9947 -0.0801
vn 0.2791 -0.8943 0.3499
vn 0.5313 -0.5232 0.6663
vn 0.3876 -0.9027 0.1867
vn -0.7528 -0.5495 -0.3625
vn -0.8614 -0.2931 -0.4148
vn -0.5683 -0.7760 -0.2737
vn -0.0923 -0.9947 -0.0445
vn 0.4032 -0.8943 0.1942
vn 0.7678 -0.5232 0.3698
vn 0.7794 -0.6266 -0.0000
vn 0.8522 0.5232 -0.0000
vn 0.7022 -0.6266 -0.3382
vn 0.7678 0.5232 -0.3698
vn 0.4476 0.8943 -0.0000
vn 0.4032 0.8943 -0.1942
vn -0.0818 0.9967 -0.0000
vn -0.0737 0.9967 0.0355
vn -0.6092 0.7930 -0.0000
vn -0.5489 0.7930 0.2643
vn -0.9269 -0.3753 -0.0000
vn -0.8351 -0.3753 0.4022
vn 0.4859 -0.6266 -0.6093
vn 0.5313 0.5232 -0.6663
vn 0.2791 0.8943 -0.3499
vn -0.0510 0.9967 0.0639
vn -0.3798 0.7930 0.4763
vn -0.5779 -0.3753 0.7247
vn 0.1734 -0.6266 -0.7598
vn 0.1896 0.5232 -0.8308
vn 0.0996 0.8943 -0.4363
vn -0.0182 0.9967 0.0797
vn -0.1356 0.7930 0.5939
vn -0.2063 -0.3753 0.9037
vn -0.1734 -0.6266 -0.7598
vn -0.1896 0.5232 -0.8308
vn -0.0996 0.8943 -0.4363
vn 0.0182 0.9967 0.0797
vn 0.1356 0.7930 0.5939
vn 0.2063 -0.3753 0.9037
vn -0.4859 -0.6266 -0.6093
vn -0.5313 0.5232 -0.6663
vn -0.2791 0.8943 -0.3499
vn 0.0510 0.9967 0.0639
vn 0.3798 0.7930 0.4763
vn 0.5779 -0.3753 0.7247
vn -0.7022 -0.6266 -0.3382
vn -0.7678 0.5232 -0.3698
vn -0.4032 0.8943 -0.1942
vn 0.0737 0.9967 0.0355
vn 0.5489 0.7930 0.2643
vn 0.8351 -0.3753 0.4022
vn -0.7794 -0.6266 -0.0000
vn -0.8522 0.5232 -0.0000
vn -0.4476 0.8943 -0.0000
vn 0.0818 0.9967 -0.0000
vn 0.6092 0.7930 -0.0000
vn 0.9269 -0.3753 -0.0000
vn -0.7022 -0.6266 0.3381
vn -0.7678 0.5232 0.3698
vn -0.4032 0.8943 0.1942
vn 0.0737 0.9967 -0.0355
vn 0.5489 0.7930 -0.2643
vn 0.8351 -0.3753 -0.4022
vn -0.4859 -0.6266 0.6093
vn -0.5313 0.5232 0.6663
vn -0.2791 0.8943 0.3499
vn 0.0510 0.9967 -0.0639
vn 0.3798 0.7930 -0.4763
vn 0.5779 -0.3753 -0.7247
vn -0.1734 -0.6266 0.7598
vn -0.1896 0.5232 0.8308
vn -0.0996 0.8943 0.4363
vn 0.0182 0.9967 -0.0797
vn 0.1356 0.7930 -0.5939
vn 0.2063 -0.3753 -0.9037
vn 0.1734 -0.6266 0.7598
vn 0.1896 0.5232 0.8308
vn 0.0996 0.8943 0.4363
vn -0.0182 0.9967 -0.0797
vn -0.1356 0.7930 -0.5939
vn -0.2063 -0.3753 -0.9037
vn 0.4859 -0.6266 0.6093
vn 0.5313 0.5232 0.6663
vn 0.2791 0.8943 0.3499
vn -0.0510 0.9967 -0.0639
vn -0.3798 0.7930 -0.4763
vn -0.5779 -0.3753 -0.7247
vn 0.7022 -0.6266 0.3382
vn 0.7678 0.5232 0.3698
vn 0.4032 0.8943 0.1942
vn -0.0737 0.9967 -0.0355
vn -0.5489 0.7930 -0.2643
vn -0.8351 -0.3753 -0.4022
vn -0.2823 -0.9496 0.1360
vn 0.3133 -0.9496 -0.0000
vn 0.0697 -0.9496 -0.3055
vn -0.1954 -0.9496 0.2450
vn 0.2823 -0.9496 0.1360
vn 0.1954 -0.9496 0.2450
vn 0.1954 -0.9496 -0.2450
vn 0.2823 -0.9496 -0.1360
vn -0.1954 -0.9496 -0.2450
vn -0.0697 -0.9496 -0.3055
vn -0.3133 -0.9496 -0.0000
vn -0.2823 -0.9496 -0.1360
vn 0.0697 -0.9496 0.3055
vn -0.0697 -0.9496 0.3055
vn 0.9595 -0.2817 -0.0000
vn 0.8645 -0.2817 -0.4163
vn 0.5982 -0.2817 -0.7502
vn 0.2135 -0.2817 -0.9354
vn -0.2135 -0.2817 -0.9354
vn -0.5982 -0.2817 -0.7502
vn -0.8645 -0.2817 -0.4163
vn -0.9595 -0.2817 -0.0000
vn -0.8645 -0.2817 0.4163
vn -0.5982 -0.2817 0.7502
vn -0.2135 -0.2817 0.9354
vn 0.2135 -0.2817 0.9354
vn 0.5982 -0.2817 0.7502
vn 0.8645 -0.2817 0.4163
vn -0.1337 -0.9767 0.1677
vn -0.2145 -0.9767 -0.0000
vn -0.1932 -0.9767 0.0931
vn 0.1337 -0.9767 0.1677
vn 0.1932 -0.9767 -0.0931
vn -0.0477 -0.9767 -0.2091
vn -0.0477 -0.9767 0.2091
vn 0.0477 -0.9767 0.2091
vn 0.1932 -0.9767 0.0931
vn 0.2145 -0.9767 -0.0000
vn 0.1337 -0.9767 -0.1677
vn 0.0477 -0.9767 -0.2091
vn -0.1337 -0.9767 -0.1677
vn -0.1932 -0.9767 -0.0931
vn 0.9595 0.2817 -0.0000
vn 0.8645 0.2817 -0.4163
vn 0.5982 0.2817 -0.7502
vn 0.2135 0.2817 -0.9354
vn -0.2135 0.2817 -0.9354
vn -0.5982 0.2817 -0.7502
vn -0.8645 0.2817 -0.4163
vn -0.9595 0.2817 -0.0000
vn -0.8645 0.2817 0.4163
vn -0.5982 0.2817 0.7502
vn -0.2135 0.2817 0.9354
vn 0.2135 0.2817 0.9354
vn 0.5982 0.2817 0.7502
vn 0.8645 0.2817 0.4163
vn -0.8413 0.5406 -0.0000
vn -0.7579 0.5406 0.3650
vn -0.5245 0.5406 0.6577
vn -0.1872 0.5406 0.8202
vn 0.1872 0.5406 0.8202
vn 0.5245 0.5406 0.6577
vn 0.7579 0.5406 0.3650
vn 0.8413 0.5406 -0.0000
vn 0.7579 0.5406 -0.3650
vn 0.5245 0.5406 -0.6577
vn 0.1872 0.5406 -0.8202
vn -0.1872 0.5406 -0.8202
vn -0.5245 0.5406 -0.6577
vn -0.7579 0.5406 -0.3650
vt 0.500000 0.000000
vt 0.571429 0.000000
vt 0.571429 0.090909
vt 0.500000 0.090909
vt 0.571429 0.181818
vt 0.500000 0.181818
vt 0.571429 0.272727
vt 0.500000 0.272727
vt 0.571429 0.363636
vt 0.500000 0.363636
vt 0.571429 0.454545
vt 0.500000 0.454545
vt 0.500000 0.542076
vt 0.571429 0.542076
vt 0.571429 0.545455
vt 0.500000 0.545455
vt 0.642857 0.000000
vt 0.642857 0.090909
vt 0.642857 0.181818
vt 0.642857 0.272727
vt 0.642857 0.363636
vt 0.642857 0.454545
vt 0.642857 0.542076
vt 0.642857 0.545455
vt 0.714286 0.000000
vt 0.714286 0.090909
vt 0.714286 0.181818
vt 0.714286 0.272727
vt 0.714286 0.363636
vt 0.714286 0.454545
vt 0.714286 0.542076
vt 0.714286 0.545455
vt 0.785714 0.000000
vt 0.785714 0.090909
vt 0.785714 0.181818
vt 0.785714 0.272727
vt 0.785714 0.363636
vt 0.785714 0.454545
vt 0.785714 0.542076
vt 0.785714 0.545455
vt 0.857143 0.000000
vt 0.857143 0.090909
vt 0.857143 0.181818
vt 0.857143 0.272727
vt 0.857143 0.363636
vt 0.857143 0.454545
vt 0.857143 0.542076
vt 0.857143 0.545455
vt 0.928571 0.000000
vt 0.928571 0.090909
vt 0.928571 0.181818
vt 0.928571 0.272727
vt 0.928571 0.363636
vt 0.928571 0.454545
vt 0.928571 0.542076
vt 0.928571 0.545455
vt 1.000000 0.000000
vt 1.000000 0.090909
vt 1.000000 0.181818
vt 1.000000 0.272727
vt 1.000000 0.363636
vt 1.000000 0.454545
vt 1.000000 0.542076
vt 1.000000 0.545455
vt -0.000000 0.000000
vt 0.071429 0.000000
vt 0.071429 0.090909
vt -0.000000 0.090909
vt 0.071429 0.181818
vt -0.000000 0.181818
vt 0.071429 0.272727
vt -0.000000 0.272727
vt 0.071429 0.363636
vt -0.000000 0.363636
vt 0.071429 0.454545
vt -0.000000 0.454545
vt -0.000000 0.542076
vt 0.071429 0.542076
vt 0.071429 0.545455
vt -0.000000 0.545455
vt 0.571429 0.545455
vt 0.785714 0.545455
vt 0.857143 0.545455
vt 0.142857 0.000000
vt 0.142857 0.090909
vt 0.142857 0.181818
vt 0.142857 0.272727
vt 0.142857 0.363636
vt 0.142857 0.454545
vt 0.142857 0.542076
vt 0.142857 0.545455
vt 0.214286 0.000000
vt 0.142857 0.000000
vt 0.214286 0.000000
vt 0.071429 0.545455
vt 0.428571 0.000000
vt 0.357143 0.000000
vt 0.357143 0.000000
vt 0.428571 0.000000
vt 0.214286 0.545455
vt 0.285714 0.545455
vt 0.285714 0.545455
vt 0.214286 0.545455
vt 0.642857 0.000000
vt 0.214286 0.090909
vt 0.214286 0.181818
vt 0.214286 0.272727
vt 0.214286 0.363636
vt 0.214286 0.454545
vt 0.214286 0.542076
vt 0.428571 0.545455
vt 0.428571 0.545455
vt 0.785714 0.000000
vt 0.500000 0.000000
vt 0.285714 0.000000
vt 0.285714 0.090909
vt 0.285714 0.181818
vt 0.285714 0.272727
vt 0.285714 0.363636
vt 0.285714 0.454545
vt 0.285714 0.542076
vt -0.000000 0.000000
vt 0.928571 0.545455
vt 0.357143 0.545455
vt 0.357143 0.545455
vt 0.357143 0.090909
vt 0.357143 0.181818
vt 0.357143 0.272727
vt 0.357143 0.363636
vt 0.357143 0.454545
vt 0.357143 0.542076
vt 0.428571 0.090909
vt 0.428571 0.181818
vt 0.428571 0.272727
vt 0.428571 0.363636
vt 0.428571 0.454545
vt 0.428571 0.542076
vt 0.500000 0.551797
vt 0.571429 0.551797
vt 0.571429 0.636364
vt 0.500000 0.636364
vt 0.571429 0.727273
vt 0.500000 0.727273
vt 0.571429 0.818182
vt 0.500000 0.818182
vt 0.571429 0.909091
vt 0.500000 0.909091
vt 0.500000 0.994525
vt 0.571429 0.994525
vt 0.571429 1.000000
vt 0.500000 1.000000
vt 0.642857 0.551797
vt 0.642857 0.636364
vt 0.642857 0.727273
vt 0.642857 0.818182
vt 0.642857 0.909091
vt 0.642857 0.994525
vt 0.642857 1.000000
vt 0.714286 0.551797
vt 0.714286 0.636364
vt 0.714286 0.727273
vt 0.714286 0.818182
vt 0.714286 0.909091
vt 0.714286 0.994525
vt 0.714286 1.000000
vt 0.785714 0.551797
vt 0.785714 0.636364
vt 0.785714 0.727273
vt 0.785714 0.818182
vt 0.785714 0.909091
vt 0.785714 0.994525
vt 0.785714 1.000000
vt 0.857143 0.551797
vt 0.857143 0.636364
vt 0.857143 0.727273
vt 0.857143 0.818182
vt 0.857143 0.909091
vt 0.857143 0.994525
vt 0.857143 1.000000
vt 0.928571 0.551797
vt 0.928571 0.636364
vt 0.928571 0.727273
vt 0.928571 0.818182
vt 0.928571 0.909091
vt 0.928571 0.994525
vt 0.928571 1.000000
vt 1.000000 0.551797
vt 1.000000 0.636364
vt 1.000000 0.727273
vt 1.000000 0.818182
vt 1.000000 0.909091
vt 1.000000 0.994525
vt 1.000000 1.000000
vt -0.000000 0.551797
vt 0.071429 0.551797
vt 0.071429 0.636364
vt -0.000000 0.636364
vt 0.071429 0.727273
vt -0.000000 0.727273
vt 0.071429 0.818182
vt -0.000000 0.818182
vt 0.071429 0.909091
vt -0.000000 0.909091
vt -0.000000 0.994525
vt 0.071429 0.994525
vt 0.071429 1.000000
vt -0.000000 1.000000
vt 0.142857 0.551797
vt 0.142857 0.636364
vt 0.142857 0.727273
vt 0.142857 0.818182
vt 0.142857 0.909091
vt 0.142857 0.994525
vt 0.142857 1.000000
vt 0.214286 0.551797
vt 0.214286 0.636364
vt 0.214286 0.727273
vt 0.214286 0.818182
vt 0.214286 0.909091
vt 0.214286 0.994525
vt 0.214286 1.000000
vt 0.285714 0.551797
vt 0.285714 0.636364
vt 0.285714 0.727273
vt 0.285714 0.818182
vt 0.285714 0.909091
vt 0.285714 0.994525
vt 0.285714 1.000000
vt 0.357143 0.551797
vt 0.357143 0.636364
vt 0.357143 0.727273
vt 0.357143 0.818182
vt 0.357143 0.909091
vt 0.357143 0.994525
vt 0.357143 1.000000
vt 0.428571 0.551797
vt 0.428571 0.636364
vt 0.428571 0.727273
vt 0.428571 0.818182
vt 0.428571 0.909091
vt 0.428571 0.994525
vt 0.428571 1.000000
vt 0.785714 0.000000
vt 0.857143 0.000000
vt 0.928571 0.000000
s 1
f 2/1/2 9/2/9 10/3/10 3/4/3
f 3/4/3 10/3/10 11/5/11 4/6/4
f 4/6/4 11/5/11 12/7/12 5/8/5
f 5/8/5 12/7/12 13/9/13 6/10/6
f 6/10/6 13/9/13 14/11/14 7/12/7
f 211/13/197 212/14/198 8/15/8 1/16/1
f 9/2/9 16/17/16 17/18/17 10/3/10
f 10/3/10 17/18/17 18/19/18 11/5/11
f 11/5/11 18/19/18 19/20/19 12/7/12
f 12/7/12 19/20/19 20/21/20 13/9/13
f 13/9/13 20/21/20 21/22/21 14/11/14
f 212/14/198 213/23/199 15/24/15 8/15/8
f 16/17/16 23/25/23 24/26/24 17/18/17
f 17/18/17 24/26/24 25/27/25 18/19/18
f 18/19/18 25/27/25 26/28/26 19/20/19
f 19/20/19 26/28/26 27/29/27 20/21/20
f 20/21/20 27/29/27 28/30/28 21/22/21
f 213/23/199 214/31/200 22/32/22 15/24/15
f 23/25/23 30/33/30 31/34/31 24/26/24
f 24/26/24 31/34/31 32/35/32 25/27/25
f 25/27/25 32/35/32 33/36/33 26/28/26
f 26/28/26 33/36/33 34/37/34 27/29/27
f 27/29/27 34/37/34 35/38/35 28/30/28
f 214/31/200 215/39/201 29/40/29 22/32/22
f 30/33/30 37/41/37 38/42/38 31/34/31
f 31/34/31 38/42/38 39/43/39 32/35/32
f 32/35/32 39/43/39 40/44/40 33/36/33
f 33/36/33 40/44/40 41/45/41 34/37/34
f 34/37/34 41/45/41 42/46/42 35/38/35
f 215/39/201 216/47/202 36/48/36 29/40/29
f 37/41/37 44/49/44 45/50/45 38/42/38
f 38/42/38 45/50/45 46/51/46 39/43/39
f 39/43/39 46/51/46 47/52/47 40/44/40
f 40/44/40 47/52/47 48/53/48 41/45/41
f 41/45/41 48/53/48 49/54/49 42/46/42
f 216/47/202 217/55/203 43/56/43 36/48/36
f 44/49/44 51/57/51 52/58/52 45/50/45
f 45/50/45 52/58/52 53/59/53 46/51/46
f 46/51/46 53/59/53 54/60/54 47/52/47
f 47/52/47 54/60/54 55/61/55 48/53/48
f 48/53/48 55/61/55 56/62/56 49/54/49
f 217/55/203 218/63/204 50/64/50 43/56/43
f 51/65/51 58/66/58 59/67/59 52/68/52
f 52/68/52 59/67/59 60/69/60 53/70/53
f 53/70/53 60/69/60 61/71/61 54/72/54
f 54/72/54 61/71/61 62/73/62 55/74/55
f 55/74/55 62/73/62 63/75/63 56/76/56
f 218/77/204 219/78/205 57/79/57 50/80/50
f 227/81/213 225/24/211 111/24/111 101/15/101
f 197/57/184 206/49/187 140/49/140 146/57/146
f 232/82/218 228/83/214 129/48/129 123/40/123
f 58/66/58 65/84/65 66/85/66 59/67/59
f 59/67/59 66/85/66 67/86/67 60/69/60
f 60/69/60 67/86/67 68/87/68 61/71/61
f 61/71/61 68/87/68 69/88/69 62/73/62
f 62/73/62 69/88/69 70/89/70 63/75/63
f 219/78/205 220/90/206 64/91/64 57/79/57
f 198/92/185 207/93/189 158/84/158 164/94/164
f 234/80/220 229/95/215 147/79/147 141/80/141
f 203/96/194 208/97/191 176/98/176 182/99/182
f 236/100/222 230/101/216 165/102/165 159/103/159
f 199/104/186 205/2/183 110/2/110 116/17/116
f 65/84/65 72/94/72 73/105/73 66/85/66
f 66/85/66 73/105/73 74/106/74 67/86/67
f 67/86/67 74/106/74 75/107/75 68/87/68
f 68/87/68 75/107/75 76/108/76 69/88/69
f 69/88/69 76/108/76 77/109/77 70/89/70
f 220/90/206 221/110/207 71/103/71 64/91/64
f 238/111/224 226/16/212 99/16/99 177/112/177
f 200/41/188 210/113/195 128/33/128 134/41/134
f 205/2/183 209/114/193 109/1/109 110/2/110
f 225/24/211 231/32/217 117/32/117 111/24/111
f 226/16/212 227/81/213 101/15/101 99/16/99
f 72/94/72 79/115/79 80/116/80 73/105/73
f 73/105/73 80/116/80 81/117/81 74/106/74
f 74/106/74 81/117/81 82/118/82 75/107/75
f 75/107/75 82/118/82 83/119/83 76/108/76
f 76/108/76 83/119/83 84/120/84 77/109/77
f 221/110/207 222/121/208 78/102/78 71/103/71
f 201/66/190 197/122/184 146/65/146 152/66/152
f 228/83/214 233/123/219 135/56/135 129/48/129
f 202/115/192 198/92/185 164/94/164 170/115/170
f 229/95/215 235/91/221 153/91/153 147/79/147
f 230/101/216 237/124/223 171/125/171 165/102/165
f 79/115/79 86/98/86 87/126/87 80/116/80
f 80/116/80 87/126/87 88/127/88 81/117/81
f 81/117/81 88/127/88 89/128/89 82/118/82
f 82/118/82 89/128/89 90/129/90 83/119/83
f 83/119/83 90/129/90 91/130/91 84/120/84
f 222/121/208 223/131/209 85/125/85 78/102/78
f 204/25/196 199/104/186 116/17/116 122/25/122
f 206/49/187 200/41/188 134/41/134 140/49/140
f 231/32/217 232/82/218 123/40/123 117/32/117
f 207/93/189 201/66/190 152/66/152 158/84/158
f 233/123/219 234/64/220 141/64/141 135/56/135
f 86/98/86 93/99/93 94/132/94 87/126/87
f 87/126/87 94/132/94 95/133/95 88/127/88
f 88/127/88 95/133/95 96/134/96 89/128/89
f 89/128/89 96/134/96 97/135/97 90/129/90
f 90/129/90 97/135/97 98/136/98 91/130/91
f 223/131/209 224/137/210 92/112/92 85/125/85
f 208/97/191 202/115/192 170/115/170 176/98/176
f 235/91/221 236/100/222 159/103/159 153/91/153
f 209/114/193 203/96/194 182/99/182 109/1/109
f 237/124/223 238/111/224 177/112/177 171/125/171
f 210/113/195 204/25/196 122/25/122 128/33/128
f 93/99/93 2/1/2 3/4/3 94/132/94
f 94/132/94 3/4/3 4/6/4 95/133/95
f 95/133/95 4/6/4 5/8/5 96/134/96
f 96/134/96 5/8/5 6/10/6 97/135/97
f 97/135/97 6/10/6 7/12/7 98/136/98
f 224/137/210 211/13/197 1/16/1 92/112/92
f 239/138/225 240/139/226 102/140/102 100/141/100
f 100/141/100 102/140/102 104/142/104 103/143/103
f 103/143/103 104/142/104 106/144/106 105/145/105
f 105/145/105 106/144/106 108/146/108 107/147/107
f 253/148/239 254/149/240 110/150/110 109/151/109
f 240/139/226 241/152/227 112/153/112 102/140/102
f 102/140/102 112/153/112 113/154/113 104/142/104
f 104/142/104 113/154/113 114/155/114 106/144/106
f 106/144/106 114/155/114 115/156/115 108/146/108
f 254/149/240 255/157/241 116/158/116 110/150/110
f 241/152/227 242/159/228 118/160/118 112/153/112
f 112/153/112 118/160/118 119/161/119 113/154/113
f 113/154/113 119/161/119 120/162/120 114/155/114
f 114/155/114 120/162/120 121/163/121 115/156/115
f 255/157/241 256/164/242 122/165/122 116/158/116
f 242/159/228 243/166/229 124/167/124 118/160/118
f 118/160/118 124/167/124 125/168/125 119/161/119
f 119/161/119 125/168/125 126/169/126 120/162/120
f 120/162/120 126/169/126 127/170/127 121/163/121
f 256/164/242 257/171/243 128/172/128 122/165/122
f 243/166/229 244/173/230 130/174/130 124/167/124
f 124/167/124 130/174/130 131/175/131 125/168/125
f 125/168/125 131/175/131 132/176/132 126/169/126
f 126/169/126 132/176/132 133/177/133 127/170/127
f 257/171/243 258/178/244 134/179/134 128/172/128
f 244/173/230 245/180/231 136/181/136 130/174/130
f 130/174/130 136/181/136 137/182/137 131/175/131
f 131/175/131 137/182/137 138/183/138 132/176/132
f 132/176/132 138/183/138 139/184/139 133/177/133
f 258/178/244 259/185/245 140/186/140 134/179/134
f 245/180/231 246/187/232 142/188/142 136/181/136
f 136/181/136 142/188/142 143/189/143 137/182/137
f 137/182/137 143/189/143 144/190/144 138/183/138
f 138/183/138 144/190/144 145/191/145 139/184/139
f 259/185/245 260/192/246 146/193/146 140/186/140
f 246/194/232 247/195/233 148/196/148 142/197/142
f 142/197/142 148/196/148 149/198/149 143/199/143
f 143/199/143 149/198/149 150/200/150 144/201/144
f 144/201/144 150/200/150 151/202/151 145/203/145
f 260/204/246 261/205/247 152/206/152 146/207/146
f 247/195/233 248/208/234 154/209/154 148/196/148
f 148/196/148 154/209/154 155/210/155 149/198/149
f 149/198/149 155/210/155 156/211/156 150/200/150
f 150/200/150 156/211/156 157/212/157 151/202/151
f 261/205/247 262/213/248 158/214/158 152/206/152
f 248/208/234 249/215/235 160/216/160 154/209/154
f 154/209/154 160/216/160 161/217/161 155/210/155
f 155/210/155 161/217/161 162/218/162 156/211/156
f 156/211/156 162/218/162 163/219/163 157/212/157
f 262/213/248 263/220/249 164/221/164 158/214/158
f 249/215/235 250/222/236 166/223/166 160/216/160
f 160/216/160 166/223/166 167/224/167 161/217/161
f 161/217/161 167/224/167 168/225/168 162/218/162
f 162/218/162 168/225/168 169/226/169 163/219/163
f 263/220/249 264/227/250 170/228/170 164/221/164
f 250/222/236 251/229/237 172/230/172 166/223/166
f 166/223/166 172/230/172 173/231/173 167/224/167
f 167/224/167 173/231/173 174/232/174 168/225/168
f 168/225/168 174/232/174 175/233/175 169/226/169
f 264/227/250 265/234/251 176/235/176 170/228/170
f 251/229/237 252/236/238 178/237/178 172/230/172
f 172/230/172 178/237/178 179/238/179 173/231/173
f 173/231/173 179/238/179 180/239/180 174/232/174
f 174/232/174 180/239/180 181/240/181 175/233/175
f 265/234/251 266/241/252 182/242/182 176/235/176
f 252/236/238 239/138/225 100/141/100 178/237/178
f 178/237/178 100/141/100 103/143/103 179/238/179
f 179/238/179 103/143/103 105/145/105 180/239/180
f 180/239/180 105/145/105 107/147/107 181/240/181
f 266/241/252 253/148/239 109/151/109 182/242/182
f 30/33/30 23/25/23 196/25/196 195/243/195
f 2/1/2 93/99/93 194/96/194 193/1/193
f 86/98/86 79/115/79 192/115/192 191/98/191
f 65/84/65 58/66/58 190/66/190 189/84/189
f 44/49/44 37/41/37 188/244/188 187/245/187
f 23/25/23 16/17/16 186/104/186 196/25/196
f 79/115/79 72/94/72 185/94/185 192/115/192
f 58/66/58 51/65/51 184/65/184 190/66/190
f 9/2/9 2/1/2 193/1/193 183/2/183
f 37/41/37 30/33/30 195/243/195 188/244/188
f 16/17/16 9/2/9 183/2/183 186/104/186
f 93/99/93 86/98/86 191/98/191 194/96/194
f 72/94/72 65/84/65 189/84/189 185/94/185
f 51/57/51 44/49/44 187/245/187 184/57/184
f 195/243/195 196/25/196 204/25/196 210/113/195
f 193/1/193 194/96/194 203/96/194 209/114/193
f 191/98/191 192/115/192 202/115/192 208/97/191
f 189/84/189 190/66/190 201/66/190 207/93/189
f 187/245/187 188/244/188 200/41/188 206/49/187
f 196/25/196 186/104/186 199/104/186 204/25/196
f 192/115/192 185/94/185 198/92/185 202/115/192
f 190/66/190 184/65/184 197/122/184 201/66/190
f 183/2/183 193/1/193 209/114/193 205/2/183
f 188/244/188 195/243/195 210/113/195 200/41/188
f 186/104/186 183/2/183 205/2/183 199/104/186
f 194/96/194 191/98/191 208/97/191 203/96/194
f 185/94/185 189/84/189 207/93/189 198/92/185
f 184/57/184 187/245/187 206/49/187 197/57/184
f 98/136/98 7/12/7 211/13/197 224/137/210
f 91/130/91 98/136/98 224/137/210 223/131/209
f 84/120/84 91/130/91 223/131/209 222/121/208
f 77/109/77 84/120/84 222/121/208 221/110/207
f 70/89/70 77/109/77 221/110/207 220/90/206
f 63/75/63 70/89/70 220/90/206 219/78/205
f 56/76/56 63/75/63 219/78/205 218/77/204
f 49/54/49 56/62/56 218/63/204 217/55/203
f 42/46/42 49/54/49 217/55/203 216/47/202
f 35/38/35 42/46/42 216/47/202 215/39/201
f 28/30/28 35/38/35 215/39/201 214/31/200
f 21/22/21 28/30/28 214/31/200 213/23/199
f 14/11/14 21/22/21 213/23/199 212/14/198
f 7/12/7 14/11/14 212/14/198 211/13/197
f 85/125/85 92/112/92 238/111/224 237/124/223
f 64/91/64 71/103/71 236/100/222 235/91/221
f 43/56/43 50/64/50 234/64/220 233/123/219
f 22/32/22 29/40/29 232/82/218 231/32/217
f 78/102/78 85/125/85 237/124/223 230/101/216
f 57/79/57 64/91/64 235/91/221 229/95/215
f 36/48/36 43/56/43 233/123/219 228/83/214
f 1/16/1 8/15/8 227/81/213 226/16/212
f 15/24/15 22/32/22 231/32/217 225/24/211
f 92/112/92 1/16/1 226/16/212 238/111/224
f 71/103/71 78/102/78 230/101/216 236/100/222
f 50/80/50 57/79/57 229/95/215 234/80/220
f 29/40/29 36/48/36 228/83/214 232/82/218
f 8/15/8 15/24/15 225/24/211 227/81/213
f 177/112/177 99/16/99 239/138/225 252/236/238
f 171/125/171 177/112/177 252/236/238 251/229/237
f 165/102/165 171/125/171 251/229/237 250/222/236
f 159/103/159 165/102/165 250/222/236 249/215/235
f 153/91/153 159/103/159 249/215/235 248/208/234
f 147/79/147 153/91/153 248/208/234 247/195/233
f 141/80/141 147/79/147 247/195/233 246/194/232
f 135/56/135 141/64/141 246/187/232 245/180/231
f 129/48/129 135/56/135 245/180/231 244/173/230
f 123/40/123 129/48/129 244/173/230 243/166/229
f 117/32/117 123/40/123 243/166/229 242/159/228
f 111/24/111 117/32/117 242/159/228 241/152/227
f 101/15/101 111/24/111 241/152/227 240/139/226
f 99/16/99 101/15/101 240/139/226 239/138/225
f 181/240/181 107/147/107 253/148/239 266/241/252
f 175/233/175 181/240/181 266/241/252 265/234/251
f 169/226/169 175/233/175 265/234/251 264/227/250
f 163/219/163 169/226/169 264/227/250 263/220/249
f 157/212/157 163/219/163 263/220/249 262/213/248
f 151/202/151 157/212/157 262/213/248 261/205/247
f 145/203/145 151/202/151 261/205/247 260/204/246
f 139/184/139 145/191/145 260/192/246 259/185/245
f 133/177/133 139/184/139 259/185/245 258/178/244
f 127/170/127 133/177/133 258/178/244 257/171/243
f 121/163/121 127/170/127 257/171/243 256/164/242
f 115/156/115 121/163/121 256/164/242 255/157/241
f 108/146/108 115/156/115 255/157/241 254/149/240
f 107/147/107 108/146/108 254/149/240 253/148/239
